<svg xmlns="http://www.w3.org/2000/svg" viewBox="0 0 339.4 420.15"><defs><style>.cls-1,.cls-2{fill:none;stroke-miterlimit:10;}.cls-1{stroke:#ff1616;stroke-width:14px;}.cls-2{stroke:aqua;stroke-width:15px;}</style></defs><g id="Layer_2" data-name="Layer 2"><g id="Layer_1-2" data-name="Layer 1"><text/><circle class="cls-1" cx="169" cy="169" r="162"/><circle class="cls-1" cx="169" cy="169" r="93"/><path class="cls-2" d="M174,411.5c3.46,1,67.93,2,66.7,0s0-97.15,0-97.15,58.17-31.08,72-70.25c0,0-72,5.59-72.09,0s0-90.57,0-90.57l90.39-1S324.93,99.74,298.13,72q-48,.18-96,.2c-11,0-32.57-.29-33.1,0s-.05,20.08,0,34.93c.17,51.12,1,89.41,1.31,102C171.1,243.13,170.59,410.5,174,411.5Z"/></g></g></svg>